<svg width="289" height="350" viewBox="0 0 289 350" fill="none" xmlns="http://www.w3.org/2000/svg">
<path d="M151.128 0V350H70.1277V65H0.127686V0H151.128Z" fill="#C3EDE9"/>
<path fill-rule="evenodd" clip-rule="evenodd" d="M172.971 324.687C167.302 313.249 162.456 301.421 158.469 289.293L12.7971 290.889C12.7971 290.889 11.3387 120.249 11.3387 107.396C11.3387 94.5428 14.4206 84.7998 32.9942 84.7998C51.5679 84.7998 148.839 83.7264 161.882 83.7264C177.951 83.7264 180.51 94.9006 180.593 107.286C180.593 115.102 180.785 144.992 180.785 144.992L168.816 145.487V166.955L180.565 167.891L197.901 158.863L216.364 165.799L233.562 157.542L248.806 155.891C248.806 155.891 257.226 236.862 288.87 309.44L172.971 324.687ZM46.3948 272.229L152.553 272.532V270.027C143.389 236.738 136.512 202.861 131.971 168.634L145.729 165.166L151.59 165.606L151.425 145.515L44.7713 144.964L46.3948 272.229ZM143.39 101.066C140.571 100.983 137.797 101.799 135.472 103.398C133.147 104.996 131.391 107.293 130.458 109.956L91.1091 108.992C90.0455 106.559 88.275 104.502 86.0276 103.089C83.7802 101.675 81.1597 100.97 78.5065 101.066C60.4557 101.066 58.9148 130.02 79.7723 130.02C82.4445 130.102 85.0692 129.3 87.2386 127.737C89.4081 126.174 91.0008 123.939 91.7695 121.377L130.293 120.442C131.285 123.423 133.247 125.986 135.865 127.722C138.483 129.457 141.607 130.266 144.739 130.02C162.239 130.02 161.771 101.066 143.39 101.066ZM236.396 171.303L217.905 181.514L195.534 176.368L179.465 183.936L148.674 180.964C148.674 180.964 156.488 248.422 183.592 308.999C183.922 309.77 269.691 297.77 269.691 297.77C241.046 241.404 236.396 171.303 236.396 171.303ZM198.561 230.615L186.454 237.44L179.575 227.064L200.46 201.551L211.796 202.321C211.796 202.321 218.621 252.44 228.609 276.633L211.274 279.825C203.597 254.367 198.561 230.615 198.561 230.615ZM71.7925 235.761C83.9273 225.771 108.279 204.826 107.426 192.028C107.069 185.863 102.583 181.019 97.0251 181.239C94.0649 181.504 91.2119 182.477 88.7071 184.077C86.2023 185.677 84.1192 187.857 82.634 190.432L71.9301 180.716C74.056 175.719 77.5774 171.441 82.0723 168.395C86.5671 165.349 91.8448 163.664 97.2728 163.542C100.808 163.222 104.371 163.625 107.745 164.725C111.119 165.826 114.234 167.602 116.901 169.945C119.568 172.287 121.73 175.148 123.256 178.353C124.783 181.558 125.641 185.04 125.78 188.588C126.66 204.11 113.315 220.019 101.675 231.578L128.862 231.138L129.467 246.991L75.9475 247.321C75.9475 247.321 72.0677 236.587 71.7925 235.761Z" fill="black"/>
</svg>
