<svg width="288" height="356" viewBox="0 0 288 356" fill="none" xmlns="http://www.w3.org/2000/svg">
<path d="M280.843 290V356H16.3431V303.5L151.343 176C165.676 162.333 175.343 150.667 180.343 141C185.343 131 187.843 121.167 187.843 111.5C187.843 97.5 183.01 86.8333 173.343 79.5C164.01 71.8333 150.176 68 131.843 68C116.51 68 102.676 71 90.3431 77C78.0098 82.6667 67.6764 91.3333 59.3431 103L0.343109 65C14.0098 44.6667 32.8431 28.8333 56.8431 17.5C80.8431 5.83332 108.343 0 139.343 0C165.343 0 188.01 4.33332 207.343 13C227.01 21.3333 242.176 33.3333 252.843 49C263.843 64.3333 269.343 82.5 269.343 103.5C269.343 122.5 265.343 140.333 257.343 157C249.343 173.667 233.843 192.667 210.843 214L130.343 290H280.843Z" fill="#C3EDE9"/>
<path fill-rule="evenodd" clip-rule="evenodd" d="M131.65 203.87L136.654 324.201C136.654 324.201 114.446 331.307 112.958 313.016C111.606 296.807 101.381 228.644 101.381 228.644L93.4822 228.185C93.4822 228.185 85.9893 290.89 82.8245 311.504C79.6596 332.117 57.7761 323.418 57.7761 323.418L65.0525 203.276C65.0525 203.276 38.6787 182.771 42.6821 164.913C46.2257 149.189 51.0406 121.903 51.0406 121.903C69.624 103.396 124.644 102.667 145.716 121.714C145.716 121.714 149.774 149.784 153.074 165.399C156.374 181.014 131.65 203.87 131.65 203.87ZM75.4127 70.4635C75.4127 36.3418 124.671 42.3935 120.857 72.7599C117.205 101.965 75.4127 105.017 75.4127 70.4635Z" fill="black"/>
<path fill-rule="evenodd" clip-rule="evenodd" d="M273.65 222.782L252.01 157.942L248.52 179.907L267.158 324.228C267.158 324.228 246.789 331.063 243.192 313.07C240.108 297.59 224.987 228.698 224.987 228.698L217.088 228.239C217.088 228.239 203.022 290.944 198.748 311.53C194.637 331.712 173.673 323.472 173.673 323.472L194.718 172.774L191.796 157.186L170.697 224.322C170.697 224.322 151.762 224.322 157.172 202.492C162.745 179.988 176.648 122.632 176.648 122.632C198.288 101.019 245.707 101.019 267.104 122.632C267.104 122.632 282.82 186.715 286.932 203.681C291.043 220.647 273.65 222.782 273.65 222.782ZM199.83 70.4905C199.83 36.3958 249.089 42.4205 245.274 72.7869C241.623 102.019 199.83 105.044 199.83 70.4905Z" fill="black"/>
</svg>
