<svg width="288" height="356" viewBox="0 0 288 356" fill="none" xmlns="http://www.w3.org/2000/svg">
<path d="M184.175 142.5C214.842 147.5 238.342 159 254.675 177C271.009 194.667 279.175 216.667 279.175 243C279.175 263.333 273.842 282.167 263.175 299.5C252.509 316.5 236.175 330.167 214.175 340.5C192.509 350.833 165.842 356 134.175 356C109.509 356 85.1754 352.833 61.1754 346.5C37.5088 339.833 17.3421 330.5 0.675415 318.5L32.1754 256.5C45.5088 266.5 60.8421 274.333 78.1754 280C95.8421 285.333 113.842 288 132.175 288C152.509 288 168.509 284.167 180.175 276.5C191.842 268.5 197.675 257.333 197.675 243C197.675 214.333 175.842 200 132.175 200H95.1754V146.5L167.175 65H18.1754V0H263.175V52.5L184.175 142.5Z" fill="#C3EDE9"/>
<path fill-rule="evenodd" clip-rule="evenodd" d="M270.187 275.037L189.713 308.15L119.039 255.163L13.7329 278.368L31.5234 86.3222L120.016 69.7799L200.634 122.738L287.948 92.9564L270.187 275.037ZM255.27 148.844L249.924 174.404L234.289 176.702L222.592 199.763L212.389 185.404L204.054 184.887L200.692 182.589L199.915 193.445L190.546 197.552L181.263 184.341L176.319 187.213L185.373 203.325L196.524 206.656L184.712 219.752L181.263 240.746L158.443 246.202L148.297 231.843L145.423 205.995L127.661 196.891L119.211 179.143L121.08 167.914L138.324 158.695L156.919 171.044L177.038 168.89L176.808 157.632L164.018 150.941L162.294 160.791L152.35 159.556L149.475 147.81L137.979 149.792L130.708 132.56L137.203 125.323L144.216 131.957L153.154 132.417L165.685 117.77L115.418 85.2596L99.0929 88.5049L101.335 91.9799L103.634 107.144L100.415 109.01L79.1756 92.4394L71.6168 93.9328L69.1738 113.376L80.5264 121.992L82.9119 106.282L99.0642 120.642L97.0524 131.699L83.6879 140.86L83.3143 158.81L73.2838 152.578L59.1433 150.941L60.0343 159.901L72.0479 164.065L60.839 171.963L46.6986 163.634L40.6917 147.265L30.9199 260.217L56.5854 253.842L68.5703 210.935L61.7874 203.325L58.5685 188.103L70.7833 170.699L102.829 188.592L101.421 194.766L117.516 207.144L106.192 223.026L101.938 228.483H93.1436L73.8586 249.649L120.045 238.161L190.776 290.286L257.397 262.745L268.52 142.124L255.27 148.844ZM235.755 252.233L227.852 246.748L211.096 259.873L206.641 241.751L223.081 216.593L225.409 222.653L232.076 221.676L234.462 211.194L247.338 224.577L246.648 243.532L235.755 252.233Z" fill="black"/>
</svg>
