<svg width="325" height="350" viewBox="0 0 325 350" fill="none" xmlns="http://www.w3.org/2000/svg">
<path d="M325 276.5H268V350H189V276.5H0.5V222L165.5 0H250.5L97.5 210.5H191.5V145H268V210.5H325V276.5Z" fill="#C3EDE9"/>
<path fill-rule="evenodd" clip-rule="evenodd" d="M310.636 224.934C300.853 222.779 290.936 221.287 280.953 220.469C280.953 215.524 281.263 205.718 281.291 201.31C281.291 181.698 254.204 181.528 254.034 202.666C254.034 207.3 254.034 214.563 254.034 218.745C247.742 218.463 241.281 218.265 234.706 218.124C234.706 209.646 234.904 200.433 234.904 197.438C234.904 181.161 216.31 178.335 209.848 189.865L195.571 158.497C253.95 158.78 296.556 165.647 319.721 178.278L310.382 192.21L310.636 224.934ZM169.556 205.153C169.556 198.879 169.556 188.593 169.556 183.987C169.386 162.934 142.158 163.047 142.271 182.659C142.271 186.671 142.496 198.145 142.581 205.435C134.116 205.605 125.792 205.831 117.977 206.17C117.977 199.981 117.977 191.814 117.977 187.886C117.807 166.805 90.5505 166.918 90.6916 186.53C90.6916 190.288 90.8891 200.66 90.9738 207.894C79.5046 208.792 68.1199 210.559 56.917 213.178L57.1991 177.035L46.5052 161.125C73.1412 146.487 103.784 138.518 171.107 138.235L200.509 205.011C189.815 205.011 179.488 205.011 169.527 205.068L169.556 205.153ZM56.8605 140.524L57.1145 109.948L46.0256 95.3382C56.6912 84.3171 88.3497 65.7227 120.177 63.1511L146.531 125.321C114.308 126.451 79.8849 130.973 56.8605 140.524ZM224.182 218.35L253.978 289.647H221.135C221.135 280.717 221.135 265.316 221.135 260.54C220.965 239.487 193.737 239.601 193.878 259.212C193.878 263.31 194.075 279.531 194.188 289.534H169.556C169.556 280.887 169.556 264.101 169.556 259.071C169.386 238.018 142.158 238.131 142.271 257.743C142.271 262.038 142.496 279.587 142.609 289.421H117.948C117.948 280.378 117.948 267.379 117.948 263.084C117.779 242.031 90.5223 242.116 90.6634 261.727C90.6634 265.486 90.8609 279.304 90.9456 289.308H57.0863L57.4531 243.076L49.1858 229.597C85.5563 217.643 147.603 218.321 224.182 218.35ZM317.295 237.679L310.184 249.265L310.636 288.969L281.065 289.449C281.065 281.593 281.348 268.877 281.376 264.836C281.376 248.389 262.386 245.676 255.981 257.602L244.046 228.947C272.403 229.908 299.519 232.31 317.21 237.679H317.295Z" fill="black"/>
</svg>
