<svg width="280" height="357" viewBox="0 0 280 357" fill="none" xmlns="http://www.w3.org/2000/svg">
<path d="M135.088 131.651C184.421 131.651 220.754 141.485 244.088 161.151C267.754 180.818 279.588 207.151 279.588 240.151C279.588 261.485 274.254 280.985 263.588 298.651C252.921 315.985 236.588 329.985 214.588 340.651C192.921 350.985 166.088 356.151 134.088 356.151C109.421 356.151 85.0878 352.985 61.0878 346.651C37.4211 339.985 17.2544 330.651 0.587769 318.651L32.5878 256.651C45.9211 266.651 61.2544 274.485 78.5878 280.151C95.9211 285.485 113.754 288.151 132.088 288.151C152.421 288.151 168.421 284.151 180.088 276.151C191.754 268.151 197.588 256.985 197.588 242.651C197.588 227.651 191.421 216.318 179.088 208.651C167.088 200.985 146.088 197.151 116.088 197.151H26.5878L44.5878 0.151245H258.088V65.1512H112.088L106.588 131.651H135.088Z" fill="#C3EDE9"/>
<path fill-rule="evenodd" clip-rule="evenodd" d="M204.235 191.118L197.82 194.057L206.684 288.618L98.6067 290.528L104.116 208.674C49.6122 193.616 64.7929 151.208 147.601 151.208C230.41 151.208 248.308 186.466 208.398 204.12L204.235 191.118ZM166.259 139.7C166.259 139.7 158.154 36.8628 196.057 43.6207C235.698 50.7703 196.424 144.254 196.424 144.254L166.259 139.7ZM125.369 144.744C125.369 144.744 89.6452 64.6044 126.74 56.3529C163.835 48.1014 154.996 139.724 154.996 139.724L125.369 144.744Z" fill="black"/>
</svg>
