<svg width="290" height="363" viewBox="0 0 290 363" fill="none" xmlns="http://www.w3.org/2000/svg">
<path d="M169.435 136.651C191.768 136.651 212.102 141.151 230.435 150.151C248.768 159.151 263.268 171.985 273.935 188.651C284.602 204.985 289.935 223.985 289.935 245.651C289.935 268.985 284.102 289.485 272.435 307.151C260.768 324.818 244.768 338.485 224.435 348.151C204.435 357.485 182.102 362.151 157.435 362.151C108.435 362.151 70.1017 347.151 42.4351 317.151C14.7684 287.151 0.935059 244.318 0.935059 188.651C0.935059 148.985 8.43506 114.985 23.4351 86.6512C38.4351 58.3179 59.2684 36.8179 85.9351 22.1512C112.935 7.48458 144.102 0.151245 179.435 0.151245C198.102 0.151245 215.935 2.3179 232.935 6.65122C250.268 10.6512 264.935 16.4846 276.935 24.1512L246.935 83.6512C229.602 71.9846 207.768 66.1512 181.435 66.1512C151.768 66.1512 128.268 74.8179 110.935 92.1513C93.6017 109.485 84.2684 134.651 82.9351 167.651C103.602 146.985 132.435 136.651 169.435 136.651ZM152.935 301.651C170.268 301.651 184.268 296.985 194.935 287.651C205.935 278.318 211.435 265.651 211.435 249.651C211.435 233.651 205.935 220.985 194.935 211.651C184.268 201.985 169.935 197.151 151.935 197.151C134.268 197.151 119.768 202.151 108.435 212.151C97.1017 221.818 91.4351 234.318 91.4351 249.651C91.4351 264.985 96.9351 277.485 107.935 287.151C118.935 296.818 133.935 301.651 152.935 301.651Z" fill="#C3EDE9"/>
<path fill-rule="evenodd" clip-rule="evenodd" d="M221.448 270.133C221.448 270.133 180.115 289.627 167.84 310.636L90.4389 310.869L72.9866 208.65L73.9464 207.688C78.2514 194.75 115.018 84.4886 119.672 63.6251C128.398 65.5191 133.808 72.3668 137.124 80.0012C140.498 67.9085 142.941 58.3801 144.134 53.7761C167.258 58.6423 171.098 79.6515 165.31 99.6699C163.157 107.1 155.304 131.723 155.304 131.723L142.389 142.562L146.897 149.905L170.662 139.037L214.787 153.868C214.787 153.868 222.815 170.915 228.894 183.27C230.496 186.268 230.939 189.753 230.14 193.058C229.34 196.363 227.354 199.258 224.56 201.19C228.506 202.215 232.315 203.712 235.904 205.648C221.681 231.494 221.448 270.133 221.448 270.133ZM201.727 199.354C199.342 194.43 194.659 185.397 194.659 185.397L174.937 180.239L151.668 195.624L152.511 225.492L182.587 233.301C182.587 233.301 187.765 210.544 204.17 202.676C203.141 201.744 202.31 200.615 201.727 199.354ZM71.6486 87.2276C85.0869 87.2276 92.795 95.1825 97.6235 102.992C89.9445 124.088 70.6305 184.173 70.6305 184.173C70.6305 184.173 72.4921 108.412 71.6486 87.2276Z" fill="black"/>
</svg>
