<svg xmlns="http://www.w3.org/2000/svg" xmlns:xlink="http://www.w3.org/1999/xlink" viewBox="0 0 155.29 176.95"><defs><style>.cls-1{fill:none;stroke-width:6px;}.cls-1,.cls-2{stroke:#000;stroke-miterlimit:10;}.cls-2{stroke-width:3px;fill:url(#Безымянный_градиент_69);}</style><linearGradient id="Безымянный_градиент_69" x1="122.48" y1="127.93" x2="22.26" y2="27.71" gradientUnits="userSpaceOnUse"><stop offset="0" stop-color="#6fd9ce"/><stop offset="0.99" stop-color="#14efd5"/></linearGradient></defs><title>Ресурс 1</title><g id="Слой_2" data-name="Слой 2"><g id="Слой_1-2" data-name="Слой 1"><path class="cls-1" d="M152.29,77.33A80,80,0,0,1,41.21,151L104.08,4A79.93,79.93,0,0,1,152.29,77.33Z"/><circle class="cls-2" cx="72.37" cy="77.82" r="70.87"/><path d="M66.49,49.94a274.51,274.51,0,0,1,7.7,27.45Q75.71,84.16,76.87,91q.6,3.54,1.11,7.09c.08.54.15,1.07.23,1.61,0,.18.13,1,0,0l.09.69c.16,1.23.31,2.46.46,3.7q.93,8.05,1.44,16.16l8.53-3.54-4.16-5c-1.67-2-5.36-1.86-7.07,0a5.14,5.14,0,0,0,0,7.07l4.16,5.06a5,5,0,0,0,8.54-3.54A287.51,287.51,0,0,0,80.93,63q-2.16-7.94-4.8-15.74c-.83-2.47-3.48-4.35-6.15-3.49-2.46.8-4.39,3.5-3.49,6.15Z"/><path d="M50.62,76A93.13,93.13,0,0,0,26,65.42l1.19,9.13q15.15-8.3,31-15.21l1.92-.83.85-.37.69-.29c-.65.28.75-.31.68-.28l.86-.36,2.14-.88c2.72-1.11,5.46-2.19,8.2-3.23q8-3.06,16.17-5.75,4.64-1.53,9.29-2.93c1.48-.45,3-.89,4.45-1.32l2.23-.63c.53-.15,1.83-.26,0-.25a1.91,1.91,0,0,1-1.59-.3q1.59,1-1.58-2.23V37l0,.13,1.29-2.2.69-.58c-2.4,1.07-3.14,4.75-1.79,6.85,1.6,2.48,4.27,2.93,6.84,1.79,2.79-1.24,3.4-4.85,2.11-7.34a7,7,0,0,0-5.8-3.33,17,17,0,0,0-5,1.1q-2.44.7-4.89,1.45-9.1,2.76-18,6A392.71,392.71,0,0,0,41.53,56q-9.84,4.68-19.41,9.93c-3.79,2.08-2.89,8,1.2,9.14,2,.54,4,1.15,6,1.84,1,.34,2,.7,2.95,1.08.49.18,1,.38,1.47.58l.62.25c-.5-.21-.49-.2,0,0a93,93,0,0,1,11.15,5.83,5.05,5.05,0,0,0,6.84-1.8A5.1,5.1,0,0,0,50.62,76Z"/><line class="cls-1" x1="104.67" y1="2.57" x2="104.08" y2="3.95"/><ellipse cx="73.04" cy="170.45" rx="51" ry="6.5"/></g></g></svg>