<svg width="52" height="81" viewBox="0 0 52 81" fill="none" xmlns="http://www.w3.org/2000/svg">
<path fill-rule="evenodd" clip-rule="evenodd" d="M47.4516 68.1656C47.4516 68.1656 34.447 74.3074 30.585 80.9266L6.23231 81L0.74129 48.7946L1.04329 48.4917C2.39775 44.4155 13.9655 9.6763 15.4298 3.10303C18.1753 3.69976 19.8775 5.85719 20.9208 8.2625C21.9824 4.45257 22.7511 1.45053 23.1264 0C30.402 1.53315 31.61 8.15233 29.7888 14.4594C29.1116 16.8004 26.6406 24.558 26.6406 24.558L22.5773 27.9731L23.9958 30.2866L31.4727 26.8623L45.3559 31.5352C45.3559 31.5352 47.8817 36.9058 49.7944 40.7984C50.2983 41.7432 50.4378 42.841 50.1863 43.8823C49.9348 44.9237 49.3099 45.8357 48.4308 46.4444C49.6724 46.7675 50.8707 47.2391 52 47.849C47.5248 55.9922 47.4516 68.1656 47.4516 68.1656ZM41.2467 45.866C40.4963 44.3145 39.0229 41.4685 39.0229 41.4685L32.818 39.8436L25.4967 44.6909L25.7621 54.101L35.2249 56.5614C35.2249 56.5614 36.8539 49.3914 42.0155 46.9126C41.6918 46.6191 41.4303 46.2631 41.2467 45.866ZM0.320312 10.5393C4.5484 10.5393 6.9736 13.0456 8.49279 15.5059C6.07674 22.1527 0 41.083 0 41.083C0 41.083 0.585711 17.2135 0.320312 10.5393Z" fill="url(#paint0_linear_14_79)"/>
<defs>
<linearGradient id="paint0_linear_14_79" x1="42.5" y1="9" x2="-9.94047e-08" y2="81" gradientUnits="userSpaceOnUse">
<stop stop-color="#FFC150"/>
<stop offset="1" stop-color="#65FFED"/>
</linearGradient>
</defs>
</svg>
