<svg width="99" height="34" viewBox="0 0 99 34" fill="none" xmlns="http://www.w3.org/2000/svg">
<path d="M14.17 1.1C16.96 1.1 19.375 1.565 21.415 2.495C23.485 3.425 25.075 4.745 26.185 6.455C27.295 8.165 27.85 10.19 27.85 12.53C27.85 14.84 27.295 16.865 26.185 18.605C25.075 20.315 23.485 21.635 21.415 22.565C19.375 23.465 16.96 23.915 14.17 23.915H7.82503V32.6H0.535034V1.1H14.17ZM13.765 17.975C15.955 17.975 17.62 17.51 18.76 16.58C19.9 15.62 20.47 14.27 20.47 12.53C20.47 10.76 19.9 9.41 18.76 8.48C17.62 7.52 15.955 7.04 13.765 7.04H7.82503V17.975H13.765ZM53.1244 32.6L47.0494 23.825H46.6894H40.3444V32.6H33.0544V1.1H46.6894C49.4794 1.1 51.8944 1.565 53.9344 2.495C56.0044 3.425 57.5944 4.745 58.7044 6.455C59.8144 8.165 60.3694 10.19 60.3694 12.53C60.3694 14.87 59.7994 16.895 58.6594 18.605C57.5494 20.285 55.9594 21.575 53.8894 22.475L60.9544 32.6H53.1244ZM52.9894 12.53C52.9894 10.76 52.4194 9.41 51.2794 8.48C50.1394 7.52 48.4744 7.04 46.2844 7.04H40.3444V18.02H46.2844C48.4744 18.02 50.1394 17.54 51.2794 16.58C52.4194 15.62 52.9894 14.27 52.9894 12.53ZM81.4003 33.14C78.1303 33.14 75.1753 32.435 72.5353 31.025C69.9253 29.615 67.8703 27.68 66.3703 25.22C64.9003 22.73 64.1653 19.94 64.1653 16.85C64.1653 13.76 64.9003 10.985 66.3703 8.525C67.8703 6.035 69.9253 4.085 72.5353 2.675C75.1753 1.265 78.1303 0.559998 81.4003 0.559998C84.6703 0.559998 87.6103 1.265 90.2203 2.675C92.8303 4.085 94.8853 6.035 96.3853 8.525C97.8853 10.985 98.6353 13.76 98.6353 16.85C98.6353 19.94 97.8853 22.73 96.3853 25.22C94.8853 27.68 92.8303 29.615 90.2203 31.025C87.6103 32.435 84.6703 33.14 81.4003 33.14ZM81.4003 26.93C83.2603 26.93 84.9403 26.51 86.4403 25.67C87.9403 24.8 89.1103 23.6 89.9503 22.07C90.8203 20.54 91.2553 18.8 91.2553 16.85C91.2553 14.9 90.8203 13.16 89.9503 11.63C89.1103 10.1 87.9403 8.915 86.4403 8.075C84.9403 7.205 83.2603 6.77 81.4003 6.77C79.5403 6.77 77.8603 7.205 76.3603 8.075C74.8603 8.915 73.6753 10.1 72.8053 11.63C71.9653 13.16 71.5453 14.9 71.5453 16.85C71.5453 18.8 71.9653 20.54 72.8053 22.07C73.6753 23.6 74.8603 24.8 76.3603 25.67C77.8603 26.51 79.5403 26.93 81.4003 26.93Z" fill="black"/>
</svg>
