<svg width="646" height="739" viewBox="0 0 646 739" fill="none" xmlns="http://www.w3.org/2000/svg">
<path d="M637.366 319.577C637.334 375.13 623.557 429.813 597.264 478.755C570.97 527.696 532.975 569.375 486.665 600.08C440.354 630.785 387.166 649.561 331.838 654.737C276.509 659.913 220.76 651.327 169.555 629.745L434.33 10.8409C494.608 36.8942 545.946 80.0043 582.022 134.861C618.098 189.718 637.336 253.927 637.366 319.577Z" stroke="black" stroke-width="16" stroke-miterlimit="10"/>
<path d="M300.784 620.019C465.623 620.019 599.252 486.43 599.252 321.64C599.252 156.85 465.623 23.2611 300.784 23.2611C135.946 23.2611 2.3172 156.85 2.3172 321.64C2.3172 486.43 135.946 620.019 300.784 620.019Z" fill="url(#paint0_linear_13_16)" stroke="black" stroke-width="3" stroke-miterlimit="10"/>
<path d="M276.021 204.259C288.826 242.195 299.65 280.77 308.449 319.83C312.717 338.832 316.479 357.932 319.736 377.131C321.421 387.067 322.979 397.017 324.411 406.981C324.748 409.255 325.043 411.486 325.379 413.76C325.379 414.518 325.927 417.97 325.379 413.76L325.759 416.665C326.432 421.843 327.064 427.022 327.696 432.243C330.307 454.838 332.328 477.517 333.76 500.28L369.684 485.376L352.164 464.325C345.131 455.904 329.591 456.494 322.389 464.325C318.58 468.344 316.457 473.671 316.457 479.208C316.457 484.745 318.58 490.071 322.389 494.091L339.909 515.395C342.854 518.346 346.61 520.357 350.699 521.173C354.789 521.988 359.029 521.571 362.881 519.975C366.733 518.378 370.025 515.674 372.338 512.206C374.652 508.737 375.882 504.659 375.875 500.49C371.036 418.964 357.955 338.137 336.835 259.244C330.77 236.958 324.032 214.869 316.62 192.975C313.124 182.576 301.964 174.661 290.719 178.282C280.359 181.65 272.231 193.017 276.021 204.175V204.259Z" fill="black"/>
<path d="M209.185 313.978C176.951 294.21 142.028 279.207 105.498 269.433L110.51 307.873C153.046 284.576 196.564 263.23 241.066 243.835L249.152 240.341L252.732 238.783L255.637 237.562C252.9 238.741 258.796 236.257 258.501 236.383L262.123 234.867L271.136 231.162C282.591 226.489 294.13 221.942 305.67 217.563C328.131 208.974 350.831 200.905 373.769 193.354C386.797 189.06 399.838 184.948 412.894 181.018C419.127 179.124 425.528 177.271 431.635 175.461L441.027 172.809C443.259 172.177 448.734 171.714 441.027 171.756C439.886 172.048 438.695 172.087 437.538 171.868C436.381 171.65 435.286 171.181 434.33 170.493C438.795 173.3 436.576 170.17 427.676 161.104V149.779V150.326L433.109 141.063L436.015 138.621C425.907 143.126 422.791 158.62 428.476 167.462C435.215 177.903 446.459 179.798 457.283 174.998C469.033 169.777 471.602 154.578 466.169 144.095C463.591 139.906 460.006 136.429 455.739 133.98C451.473 131.531 446.661 130.188 441.743 130.075C434.53 130.547 427.43 132.108 420.685 134.706C413.835 136.671 406.97 138.706 400.091 140.811C374.541 148.558 349.273 156.978 324.284 166.072C272.122 184.724 220.93 205.985 170.903 229.773C143.275 242.909 116.027 256.845 89.1578 271.581C73.1964 280.338 76.9867 305.262 94.2116 310.062C102.635 312.336 111.058 314.904 119.48 317.809C123.692 319.24 127.903 320.756 131.904 322.356C133.968 323.114 136.116 323.956 138.095 324.798L140.706 325.85C138.601 324.966 138.643 325.008 140.706 325.85C156.895 332.963 172.584 341.164 187.664 350.396C192.502 353.155 198.23 353.907 203.616 352.49C209.003 351.073 213.618 347.6 216.471 342.818C219.216 338 219.99 332.308 218.632 326.932C217.274 321.556 213.889 316.914 209.185 313.978V313.978Z" fill="black"/>
<path d="M436.815 4.82031L434.33 10.6304" stroke="black" stroke-width="6" stroke-miterlimit="10"/>
<path d="M303.606 739C422.229 739 518.391 726.748 518.391 711.634C518.391 696.519 422.229 684.267 303.606 684.267C184.984 684.267 88.8209 696.519 88.8209 711.634C88.8209 726.748 184.984 739 303.606 739Z" fill="black"/>
<defs>
<linearGradient id="paint0_linear_13_16" x1="511.822" y1="532.615" x2="89.8724" y2="110.541" gradientUnits="userSpaceOnUse">
<stop stop-color="#6FD9CE"/>
<stop offset="0.99" stop-color="#14EFD5"/>
</linearGradient>
</defs>
</svg>
