<svg width="279" height="150" viewBox="0 0 279 150" fill="none" xmlns="http://www.w3.org/2000/svg">
<path d="M32.736 15.5665C36.4257 23.1793 39.3855 30.0696 42.2841 37.914C45.1485 45.552 47.6493 53.3193 49.7862 61.2159C51.0093 65.7141 52.1073 70.2441 53.0802 74.8059L58.2087 71.8206L53.4348 66.0822C52.4118 64.8417 50.1477 64.944 49.0974 66.0822C48.5415 66.6684 48.2316 67.4451 48.2316 68.2527C48.2316 69.0606 48.5415 69.8373 49.0974 70.4235L53.8713 76.1622C54.3522 76.6386 54.9771 76.9437 55.6488 77.0298C56.3208 77.1162 57.0024 76.9788 57.5883 76.6392C58.1583 76.284 58.6014 75.7581 58.8549 75.1365C59.1084 74.5149 59.1591 73.8291 59.0001 73.1769C55.4526 56.7468 50.3652 40.6872 43.8051 25.2102C41.9862 20.9165 40.0608 16.6705 38.0283 12.4723C37.6146 11.7744 36.9423 11.2677 36.1569 11.0623C35.3715 10.8568 34.5369 10.9692 33.834 11.375C33.1476 11.7993 32.6508 12.4711 32.4465 13.2514C32.2422 14.0316 32.3457 14.8605 32.736 15.5665Z" fill="black"/>
<path d="M34.3727 33.0138C24.0436 31.6686 13.6475 30.8973 3.23266 30.7035L6.19255 32.9526C5.99476 32.3733 6.13117 33.2661 6.09025 33.4431L6.13798 33.225C5.9743 33.5931 5.96749 33.6273 6.13798 33.3207L5.95384 33.5319C6.06295 33.4023 6.1789 33.2727 6.30166 33.1503C6.42442 33.0276 7.02457 32.5299 6.49261 32.9388C7.46725 32.2596 8.48821 31.6494 9.54799 31.1124C11.6963 29.8719 13.8719 28.6656 16.0543 27.4934C20.4327 25.1443 24.8794 22.9316 29.3942 20.8552C31.6448 19.8192 33.9182 18.8151 36.2141 17.8428L36.6233 17.6724L37.4486 17.3385L39.1742 16.6569C40.3289 16.2026 41.4839 15.7482 42.6386 15.2938C47.2718 13.4764 51.9548 11.8089 56.688 10.2913C59.3612 9.44623 62.0372 8.64427 64.715 7.88551C66.011 7.522 67.3088 7.16989 68.6093 6.82912C69.1919 6.58039 69.812 6.43066 70.4438 6.38611L70.0688 6.44065H70.5053C70.0347 6.35884 69.9666 6.35884 70.2938 6.44065C70.0667 6.38341 69.8534 6.28162 69.6659 6.14122C69.4787 6.00082 69.3212 5.8246 69.2027 5.62279C70.103 6.98587 71.9306 7.66741 73.4039 6.72688C74.72 5.87497 75.4499 3.94621 74.5019 2.52861C74.0462 1.83037 73.4202 1.25946 72.6827 0.869583C71.9456 0.479709 71.1209 0.283695 70.2869 0.29998C68.9552 0.393027 67.64 0.651738 66.3722 1.07012C63.7262 1.77892 61.0892 2.52861 58.4612 3.31918C53.3144 4.87309 48.2198 6.59284 43.1774 8.47843C32.8994 12.3405 22.8866 16.8734 13.2035 22.0479C10.5573 23.4519 7.93846 24.9149 5.34685 26.437C2.48926 28.1068 -1.00259 30.7581 0.272756 34.5882C0.466407 35.2266 0.856775 35.7879 1.38825 36.1917C1.91972 36.5955 2.56517 36.8214 3.23266 36.8373C13.6475 37.0311 24.0436 37.8024 34.3727 39.1476C35.9687 39.3522 37.5101 37.587 37.4417 36.0807C37.3601 34.2405 36.0779 33.2319 34.3727 33.0138Z" fill="black"/>
<path d="M70.1439 48.6894C73.479 48.6894 74.6178 44.7159 72.5103 42.4941C72.0327 41.9964 71.4303 41.6352 70.7661 41.4483C70.1016 41.2611 69.3993 41.2548 68.7318 41.43C68.064 41.6052 67.4556 41.9553 66.9687 42.4443C66.4821 42.9333 66.135 43.5435 65.9631 44.2116C65.3904 46.2561 66.1815 48.3963 66.7953 50.3454C67.3662 52.3248 68.2011 54.2184 69.2778 55.9749C71.433 59.2872 75.1431 61.9383 79.2621 61.734C84.0363 61.4955 86.7642 57.6924 88.9398 53.8893C91.233 49.8408 92.7696 45.4089 93.4752 40.8108H87.5622C91.8042 56.7042 96.0873 72.5907 100.295 88.5183C102.341 96.2199 104.278 103.955 105.554 111.827C105.704 112.74 105.84 113.66 105.976 114.553C106.126 115.603 105.935 114.267 106.017 114.88L106.12 115.691C106.188 116.23 106.256 116.775 106.31 117.32C106.529 119.27 106.692 121.226 106.788 123.188C107.036 126.885 106.983 130.595 106.631 134.284C106.631 134.284 106.522 135.136 106.59 134.652C106.658 134.168 106.529 135.02 106.529 135.02C106.474 135.361 106.413 135.701 106.338 136.042C106.175 136.841 105.961 137.629 105.697 138.4C105.629 138.598 105.554 138.796 105.479 138.993C105.404 139.191 105.219 139.491 105.479 138.959C105.329 139.252 105.199 139.559 105.035 139.852C104.871 140.145 104.599 140.534 104.353 140.908C104.278 141.031 103.992 141.344 104.353 140.908C104.189 141.099 104.033 141.29 103.862 141.474C103.691 141.658 103.378 141.944 103.132 142.156C102.723 142.537 103.064 142.224 103.132 142.156C102.969 142.278 102.798 142.401 102.621 142.51C102.314 142.714 101.996 142.898 101.666 143.062L101.223 143.273C101.905 142.953 101.161 143.273 101.045 143.314C100.345 143.548 99.6267 143.721 98.8971 143.832C99.579 143.723 98.6925 143.832 98.4675 143.832C98.0445 143.832 97.6218 143.832 97.1988 143.832C96.4212 143.822 95.6448 143.767 94.8732 143.669C95.5554 143.75 94.6278 143.614 94.3959 143.573C93.9594 143.491 93.5298 143.403 93.1002 143.307C91.5243 142.933 89.9751 142.454 88.4625 141.876C87.7326 141.603 87.003 141.317 86.28 141.024C86.28 141.024 85.4754 140.684 85.8846 140.861L85.6185 140.745L84.2544 140.125C82.7451 139.434 81.2628 138.698 79.8078 137.916C76.8975 136.344 74.091 134.586 71.4057 132.655C70.7235 132.171 70.0416 131.68 69.414 131.169L68.8755 130.74C68.514 130.454 68.1933 130.167 67.8045 129.867C66.5019 128.784 65.2266 127.652 63.9921 126.46C61.6053 124.19 59.3661 121.77 57.288 119.215C57.0291 118.895 56.7765 118.568 56.5176 118.24C56.2584 117.913 56.7765 118.595 56.5176 118.206L56.1015 117.661C55.5762 116.979 55.0647 116.25 54.5805 115.521C54.0963 114.792 53.619 114.001 53.2167 113.21C53.0052 112.815 52.8006 112.413 52.6164 112.011C52.6164 111.943 52.3506 111.377 52.4733 111.698C52.596 112.018 52.296 111.207 52.2618 111.105C51.9918 110.335 51.7887 109.544 51.6549 108.74C51.7503 109.333 51.6549 108.74 51.6549 108.563C51.6549 108.385 51.6549 108.188 51.6549 107.997C51.6549 107.806 51.6549 107.527 51.6549 107.315C51.6549 107.104 51.7845 106.361 51.6549 106.995C51.7191 106.615 51.8082 106.239 51.9207 105.87C51.9684 105.693 52.0368 105.516 52.098 105.339C52.3572 104.528 51.9207 105.598 52.1664 105.162C52.578 104.374 53.0334 103.609 53.5302 102.872C53.2167 103.308 53.8305 102.524 53.9463 102.388C54.2238 102.07 54.51 101.756 54.8058 101.447C55.3989 100.82 56.0127 100.214 56.6538 99.6411C57.2949 99.0687 57.8814 98.571 58.5159 98.0667C58.4271 98.1417 58.0725 98.4006 58.5159 98.0667L58.9455 97.7397L60.0504 96.9627C61.443 96.0108 62.889 95.1393 64.3809 94.3524C65.0631 93.9912 65.745 93.6708 66.4269 93.3231C66.7953 93.1461 67.1703 92.9826 67.5456 92.8122L68.1729 92.5395C67.6749 92.7507 68.2956 92.4918 68.4525 92.4303C71.5329 91.2003 74.6877 90.1644 77.8983 89.3295C79.494 88.9068 81.1035 88.5183 82.7133 88.1571C83.4948 87.9375 84.1584 87.4185 84.5592 86.7126C84.9603 86.007 85.0665 85.1718 84.8547 84.3882C84.624 83.6136 84.1032 82.9578 83.4003 82.5579C82.6977 82.1577 81.8676 82.0446 81.0831 82.2414C74.0859 83.8158 67.1091 85.8945 60.7665 89.3091C57.5556 91.0371 54.5763 93.1644 51.9003 95.6406C49.104 98.2509 46.3761 101.474 45.6942 105.346C44.2551 113.435 50.2704 120.66 55.2831 126.282C60.0879 131.646 65.5935 136.338 71.6511 140.234C74.5878 142.124 77.6505 143.811 80.8173 145.284C84.0984 146.886 87.5238 148.175 91.0473 149.135C94.539 150 98.2902 150.375 101.83 149.496C103.622 149.044 105.303 148.229 106.767 147.101C108.231 145.973 109.448 144.557 110.341 142.939C112.101 139.743 112.687 136.069 112.919 132.471C113.147 128.398 113.086 124.315 112.735 120.251C111.929 111.742 110.449 103.31 108.309 95.034C106.263 86.7531 103.992 78.5271 101.789 70.2939L95.1393 45.3837L93.4752 39.1476C93.2925 38.5035 92.9064 37.9356 92.3739 37.5291C91.8417 37.1223 91.1919 36.8988 90.522 36.8919C89.2809 36.9462 87.7941 37.7913 87.5622 39.1476C87.1065 41.9436 86.3613 44.6844 85.3389 47.3262C85.1616 47.8032 85.5027 46.9581 85.2981 47.4216L85.1205 47.8305C84.9774 48.1509 84.8274 48.4644 84.6774 48.7779C84.3501 49.4595 83.9952 50.1408 83.6406 50.7612C83.286 51.3813 82.9587 51.9606 82.5564 52.5468C82.3926 52.7922 82.2291 53.0442 82.0584 53.2896C81.9903 53.3988 81.3765 54.2301 81.7038 53.8143C81.4992 54.0666 81.2811 54.3189 81.0219 54.5574C80.9196 54.6663 80.292 55.2387 80.7012 54.9117C80.4489 55.1094 80.1489 55.2321 79.8828 55.416C79.617 55.6002 79.9989 55.3614 80.0601 55.3479C79.8624 55.4025 79.6782 55.4706 79.4805 55.5183C79.2828 55.566 78.8667 55.6272 79.3032 55.5729C79.7397 55.5183 79.3032 55.5729 79.2351 55.5729H78.396C78.0483 55.5729 78.5733 55.5729 78.6144 55.5729C78.4575 55.5318 78.2871 55.5114 78.1302 55.4775C77.8095 55.3956 77.5026 55.2798 77.1891 55.1775C77.7414 55.3548 77.1345 55.1775 76.9026 55.0206C76.6707 54.864 76.3977 54.7209 76.1523 54.564C75.6612 54.2574 76.3977 54.8163 75.9681 54.4347C75.7182 54.2196 75.4791 53.9922 75.252 53.7531C75.1293 53.6235 75.0201 53.4873 74.9043 53.3577C74.9043 53.3988 75.1497 53.7054 74.9451 53.4192C74.7405 53.133 74.5701 52.8876 74.3997 52.608C74.0244 52.0083 73.7175 51.3744 73.4175 50.7408C73.2675 50.4273 73.4175 50.7408 73.4175 50.8293C73.3287 50.6043 73.2402 50.3862 73.1583 50.1477C73.0287 49.7934 72.906 49.4661 72.7833 49.0776C72.5445 48.3552 72.333 47.6193 72.1011 46.89C72.0057 46.5492 71.9034 46.2084 71.8284 45.8745C71.8284 45.8745 71.7465 45.5268 71.7534 45.5268C71.8011 45.9153 71.8215 45.9903 71.808 45.7587C71.7942 45.5268 71.808 45.6018 71.808 45.8268C71.7582 46.0074 71.6919 46.1832 71.6103 46.3515C71.4375 46.6284 71.1672 46.83 70.8528 46.9173C70.5384 47.0043 70.2027 46.9704 69.912 46.8219C69.6795 47.0214 69.3831 47.1312 69.0765 47.1312C68.7699 47.1312 68.4735 47.0214 68.241 46.8219C67.8222 46.4829 67.5429 46.0017 67.4562 45.4701C67.3692 44.9385 67.4811 44.3934 67.7706 43.9389L68.8755 42.8415L70.0962 42.501C69.2823 42.501 68.5017 42.8241 67.926 43.3992C67.3506 43.9743 67.0272 44.7543 67.0272 45.5679C67.0272 46.3812 67.3506 47.1612 67.926 47.7363C68.5017 48.3117 69.2823 48.6348 70.0962 48.6348L70.1439 48.6894Z" fill="black"/>
<path d="M106.474 35.0925C110.312 53.0169 114.565 70.8438 119.234 88.5729C120.544 93.5391 121.883 98.5029 123.251 103.465L128.898 101.1C127.63 99.1833 126.466 97.1994 125.413 95.1567C124.904 94.1571 124.42 93.1437 123.961 92.1168C123.851 91.8783 123.749 91.6467 123.654 91.4355C123.858 91.9194 123.49 91.0401 123.49 91.0332C123.258 90.4677 123.033 89.895 122.808 89.3226C122.249 87.8232 120.707 86.6373 119.03 87.1827C117.563 87.6528 116.302 89.343 116.888 90.9516C118.613 95.6109 120.859 100.06 123.586 104.214C123.969 104.846 124.567 105.32 125.27 105.551C125.973 105.78 126.735 105.751 127.418 105.468C128.102 105.182 128.659 104.657 128.985 103.992C129.311 103.326 129.385 102.565 129.192 101.849C124.299 84.1929 119.816 66.4251 115.742 48.546C114.597 43.5483 113.487 38.5275 112.414 33.4842C112.192 32.7033 111.671 32.0415 110.964 31.641C110.257 31.2408 109.421 31.134 108.636 31.344C107.861 31.5744 107.206 32.0955 106.806 32.7978C106.407 33.5004 106.295 34.3299 106.495 35.1129L106.474 35.0925Z" fill="black"/>
<path d="M110.709 46.8696L107.981 43.2711C107.802 42.9783 107.596 42.7023 107.368 42.4464C107.143 42.2556 107.422 42.4941 107.368 42.6303L107.095 43.5777C107.155 43.7706 107.148 43.9782 107.076 44.1672C107.005 44.3559 106.872 44.5155 106.699 44.6205L106.577 44.7024C106.679 44.6328 106.786 44.5713 106.897 44.5182L107.224 44.3616C107.361 44.2932 107.504 44.2389 107.64 44.1774C107.777 44.1162 107.831 44.0958 107.64 44.1774L107.92 44.0685C110.509 43.0257 113.183 42.2094 115.913 41.6286C116.595 41.4855 117.311 41.349 118.014 41.2332L118.914 41.097C119.425 41.0151 118.491 41.1447 119.003 41.097L119.609 41.0289C121.019 40.8651 122.435 40.7676 123.858 40.7358C125.277 40.7358 126.702 40.7358 128.121 40.8312C128.803 40.872 129.43 40.9332 130.092 41.0016L130.542 41.0559L130.89 41.097H131.088L131.688 41.1924C132.913 41.3607 134.122 41.6298 135.302 41.9964C135.452 42.0444 136.155 42.3237 135.8 42.1668C135.446 42.0102 136.182 42.3579 136.264 42.4056C136.462 42.5145 136.66 42.6237 136.844 42.7461C136.977 42.8133 137.101 42.8982 137.212 42.9984C137.11 42.8622 136.817 42.6372 137.089 42.9234C137.178 43.0188 137.689 43.605 137.41 43.2234C137.13 42.8418 137.485 43.4211 137.553 43.5027C137.798 43.8162 137.314 42.9507 137.471 43.3254L137.546 43.6185C137.546 43.6185 137.478 42.9372 137.505 43.3119C137.533 43.6869 137.505 43.6527 137.56 43.3119C137.492 43.605 137.321 43.932 137.56 43.4892C137.512 43.5846 137.075 44.2866 137.28 44.0004C137.485 43.7139 137.246 44.0004 137.205 44.0751L136.85 44.4432C136.721 44.5659 135.977 45.1656 136.489 44.784C134.326 46.3191 132.011 47.6277 129.58 48.6894L128.639 49.1118L128.469 49.1868L128.298 49.2618C127.616 49.5411 126.934 49.8069 126.252 50.0592C124.963 50.5362 123.654 50.9724 122.338 51.3744C116.386 53.0679 110.337 54.3993 104.224 55.3614L106.604 60.957L107.756 60.1731C109.079 59.2668 109.802 57.447 108.861 55.9749C108.009 54.6663 106.079 53.9304 104.66 54.8775L103.487 55.6818C102.845 56.0583 102.362 56.6553 102.128 57.3612C101.894 58.0671 101.924 58.8342 102.213 59.5194C102.503 60.2046 103.031 60.7614 103.701 61.086C104.371 61.4106 105.136 61.4811 105.854 61.284C112.02 60.3156 118.122 58.9704 124.124 57.2562C127.24 56.3061 130.283 55.1331 133.229 53.7462C135.957 52.4445 138.978 50.9316 141.188 48.7914C143.766 46.2972 144.489 42.4668 142.218 39.5226C140.445 37.2327 137.573 36.1149 134.804 35.5629C128.17 34.2666 121.345 34.2897 114.719 35.631C111.072 36.3471 107.521 37.4907 104.142 39.0387C101.659 40.1904 100.534 42.9849 101.987 45.4179C103.038 46.9908 104.177 48.5037 105.397 49.95C106.365 51.2178 108.084 51.9948 109.598 51.0474C110.853 50.2365 111.739 48.219 110.696 46.8492L110.709 46.8696Z" fill="black"/>
<path d="M155.074 34.6359C153.925 32.6991 152.351 31.0488 150.47 29.8107C148.724 28.6384 146.562 29.8856 145.962 31.6371C145.291 33.6744 145.059 35.8302 145.282 37.9632C145.504 40.0965 146.175 42.1584 147.251 44.0139C148.325 45.8208 149.769 47.3802 151.489 48.5901C153.208 49.8 155.164 50.6328 157.229 51.0339C161.709 51.8448 165.999 50.5908 169.852 48.3075C173.305 46.2822 176.205 43.4382 178.296 40.0269C180.533 36.2715 182.353 30.1923 178.453 26.8119C176.795 25.3738 173.89 25.7759 173.324 28.175C172.721 30.5214 172.733 32.9835 173.359 35.3241C173.985 37.6644 175.204 39.8043 176.898 41.5371C178.593 43.2699 180.705 44.5371 183.032 45.2169C185.359 45.8967 187.822 45.966 190.183 45.4179C190.575 45.3093 190.942 45.1242 191.263 44.8734C191.583 44.6223 191.851 44.3103 192.05 43.9554C192.249 43.6008 192.376 43.2099 192.423 42.8058C192.47 42.4017 192.436 41.9925 192.325 41.6013C192.094 40.8267 191.573 40.1709 190.87 39.771C190.168 39.3708 189.337 39.2574 188.553 39.4545C188.553 39.4545 187.748 39.6111 188.185 39.5361C188.621 39.4611 187.905 39.5361 187.816 39.5361C187.383 39.5601 186.948 39.5601 186.514 39.5361L185.995 39.5022C185.191 39.4341 186.35 39.5976 185.907 39.5022C185.464 39.4068 185.061 39.3249 184.638 39.2022L184.018 38.9979C183.731 38.9025 183.765 38.8956 184.018 38.9979C183.621 38.8206 183.234 38.6226 182.858 38.4048C182.676 38.2959 182.492 38.1798 182.306 38.0574C182.095 37.914 181.856 37.7301 182.197 37.9959C181.853 37.7289 181.53 37.4373 181.228 37.1235C181.105 37.0008 180.99 36.8715 180.874 36.7419C180.874 36.7419 180.403 36.1284 180.621 36.4419C180.84 36.7554 180.458 36.1761 180.417 36.1149C180.294 35.931 180.185 35.7468 180.076 35.556L179.776 34.9767C179.503 34.4724 179.837 35.2152 179.714 34.8744C179.591 34.5336 179.448 34.1451 179.339 33.7635C179.23 33.3819 179.134 32.9184 179.059 32.4891C179.134 32.9253 179.059 32.7141 179.059 32.4006C179.059 32.0871 179.059 31.971 179.026 31.7529C179.026 31.3578 179.066 30.9693 179.066 30.5808C179.066 30.1923 178.95 31.0782 179.066 30.4923C179.114 30.2331 179.169 29.981 179.23 29.7289L174.094 31.092C174.136 31.092 174.708 31.5555 174.333 31.2624C173.958 30.9693 174.333 31.2624 174.408 31.3986L174.463 31.494C174.613 31.8006 174.599 31.7529 174.415 31.3713C174.473 31.509 174.514 31.6533 174.538 31.8006C174.688 32.2368 174.381 31.8006 174.538 31.6575C174.541 31.8126 174.552 31.9674 174.572 32.121C174.572 32.2779 174.572 32.4345 174.572 32.5914C174.572 32.748 174.572 32.9115 174.572 33.0684L174.62 32.7276C174.558 33.4593 174.361 34.1733 174.04 34.8336C173.986 34.9971 173.917 35.154 173.856 35.3106C174.074 34.7517 173.917 35.1744 173.856 35.3106C173.672 35.6922 173.488 36.0807 173.276 36.4557C172.896 37.1268 172.477 37.7751 172.021 38.3979C171.953 38.5002 171.653 38.8341 172.021 38.3979C171.905 38.5275 171.803 38.6637 171.687 38.8002C171.414 39.1272 171.121 39.4818 170.821 39.7611C170.282 40.32 169.709 40.8516 169.116 41.3559L168.714 41.6829C169.15 41.3082 168.816 41.6082 168.714 41.6829C168.366 41.9352 168.031 42.1875 167.65 42.4326C166.968 42.8622 166.327 43.2573 165.604 43.6254C165.263 43.8027 164.922 43.9731 164.574 44.1366L164.035 44.382C164.553 44.1639 163.769 44.4705 163.66 44.5113C162.823 44.8167 161.96 45.0447 161.082 45.1929C161.696 45.0975 160.795 45.1929 160.584 45.1929C160.157 45.1929 159.727 45.1929 159.295 45.1929L158.784 45.1452C159.466 45.2202 158.886 45.1452 158.709 45.1452C158.331 45.0744 157.958 44.9835 157.59 44.8725C157.256 44.7771 156.908 44.6478 156.615 44.5386C157.16 44.7228 156.765 44.6136 156.615 44.5386C156.465 44.4636 156.151 44.3139 155.933 44.1912C155.591 44.0082 155.259 43.8081 154.937 43.5915C154.76 43.4754 154.582 43.3527 154.412 43.2234C154.514 43.2984 154.849 43.5981 154.412 43.2234C154.16 42.9915 153.901 42.7668 153.662 42.5418L153.314 42.1668C153.178 42.0102 152.836 41.5536 153.143 41.976C152.897 41.6223 152.67 41.256 152.461 40.8789C152.352 40.6881 152.25 40.4904 152.155 40.2927C152.059 40.095 151.923 39.7884 152.086 40.1904C151.77 39.3738 151.531 38.5296 151.37 37.6689C151.213 36.8508 151.37 38.0709 151.37 37.5666C151.37 37.3077 151.329 37.0419 151.322 36.7827C151.299 36.3447 151.299 35.9055 151.322 35.4675C151.322 35.3721 151.398 34.7859 151.322 35.2221C151.247 35.6583 151.404 34.8198 151.425 34.7313C151.53 34.2696 151.662 33.8145 151.82 33.3684L147.312 35.2017L147.756 35.5083C147.51 35.3379 147.578 35.3583 147.756 35.5083C148.063 35.7741 148.363 36.0534 148.642 36.3465C148.765 36.483 148.874 36.6261 149.004 36.7554C149.324 37.0689 148.772 36.4011 149.004 36.7554C149.236 37.11 149.461 37.437 149.686 37.7778C149.886 38.1315 150.154 38.4417 150.476 38.6907C150.797 38.9397 151.165 39.1227 151.557 39.2283C151.95 39.3342 152.359 39.3612 152.763 39.3072C153.166 39.2535 153.554 39.1203 153.905 38.9154C154.256 38.7105 154.563 38.4378 154.807 38.1132C155.052 37.7889 155.23 37.419 155.331 37.0251C155.431 36.6315 155.452 36.2217 155.393 35.8197C155.333 35.4177 155.195 35.0316 154.985 34.6836L155.074 34.6359Z" fill="black"/>
<path d="M215.69 28.284C216.563 25.6464 215.076 22.6477 212.703 21.3527C210.329 20.0578 207.553 20.3236 204.969 20.8143C200.509 21.6662 195.734 23.6632 192.406 26.8391C188.88 30.2469 187.632 36.258 191.69 39.7884C194.93 42.6099 199.533 42.7461 203.605 42.4668C209.15 42.0744 214.574 40.6602 219.604 38.2959C221.064 37.6143 221.548 35.3991 220.709 34.0974C220.28 33.4128 219.604 32.919 218.821 32.7174C218.039 32.5158 217.208 32.622 216.502 33.0138L215.819 33.3411C215.765 33.3411 215.137 33.6204 215.465 33.4977C215.792 33.375 214.885 33.7296 214.967 33.6954L214.387 33.9204C213.508 34.2543 212.621 34.554 211.72 34.8267C209.932 35.3637 208.109 35.778 206.265 36.0672C206.333 36.0672 205.324 36.2034 205.739 36.1488C206.155 36.0945 205.439 36.183 205.371 36.1899C204.907 36.2376 204.437 36.2853 203.973 36.3192C203.039 36.3942 202.098 36.4353 201.163 36.4419C200.413 36.4419 199.676 36.4419 198.933 36.3534C198.476 36.3192 198.974 36.258 199.056 36.3534C198.903 36.3174 198.748 36.2925 198.592 36.2784C198.213 36.2115 197.837 36.1251 197.467 36.0195C197.283 35.9718 197.105 35.9037 196.928 35.8491C196.751 35.7945 196.369 35.6241 196.771 35.8014C197.173 35.9787 196.573 35.6922 196.539 35.6718C196.505 35.6514 196.28 35.5356 196.157 35.4606C196.035 35.3856 195.837 35.2833 195.803 35.2152C195.939 35.4879 196.157 35.5491 195.925 35.2971C195.832 35.1903 195.732 35.0901 195.625 34.9971C195.175 34.5813 195.844 35.4537 195.591 34.9359C195.591 34.9359 195.237 34.2543 195.427 34.6905C195.619 35.1267 195.394 34.5474 195.366 34.4451C195.339 34.3428 195.305 33.7158 195.319 34.3293C195.319 34.1451 195.319 33.9681 195.319 33.7839C195.319 33.6 195.427 33.2388 195.319 33.7839C195.359 33.6069 195.394 33.4227 195.441 33.2457C195.489 33.0684 195.55 32.898 195.612 32.7207C195.4 33.3 195.7 32.5776 195.769 32.4549L196.062 31.9917C196.485 31.3101 195.823 32.1825 196.164 31.8552C196.505 31.5282 196.717 31.2555 197.023 30.9762C197.167 30.8466 197.931 30.2946 197.467 30.5943C197.842 30.3285 198.217 30.0696 198.613 29.8243C199.376 29.3537 200.164 28.9237 200.972 28.5361C201.129 28.4612 202.063 28.0386 201.613 28.2295C202.077 28.0318 202.555 27.8546 203.025 27.691C203.955 27.3687 204.902 27.098 205.862 26.88C206.353 26.771 206.844 26.6892 207.342 26.6006C208.276 26.4302 206.994 26.6006 207.54 26.6006C207.785 26.6006 208.024 26.5529 208.263 26.5461C208.501 26.5392 208.754 26.5461 208.986 26.5461C209.218 26.5461 209.177 26.5461 208.877 26.5052C209.017 26.5275 209.156 26.557 209.293 26.5938C209.374 26.5938 209.927 26.7982 209.599 26.6619C209.272 26.5256 210.159 27.1186 209.791 26.771C209.422 26.4234 210.125 27.0845 209.756 26.7301C209.388 26.3757 210.036 27.3435 209.852 26.8732C209.668 26.4029 209.941 27.3571 209.852 26.771C209.852 26.512 209.818 26.5256 209.852 26.8187C209.92 26.3893 209.906 26.3416 209.811 26.6824C209.601 27.4666 209.707 28.302 210.108 29.0083C210.509 29.7147 211.171 30.2355 211.952 30.4581C212.738 30.6552 213.569 30.5421 214.273 30.1422C214.976 29.7422 215.499 29.0864 215.731 28.3112L215.69 28.284Z" fill="black"/>
<path d="M229.575 23.5609C229.259 25.4196 229.079 27.2988 229.037 29.1836C229.037 29.9333 229.05 30.6831 229.078 31.4328C229.078 31.8006 229.139 32.1687 229.146 32.5368C229.159 32.691 229.159 32.8461 229.146 33.0003L229.2 32.6391C229.125 32.9049 229.132 32.9253 229.2 32.6799L229.275 32.5095C229.38 32.2995 229.538 32.1201 229.733 31.9887C229.927 31.8573 230.153 31.7784 230.387 31.7598C230.641 31.6704 230.914 31.6494 231.178 31.6986C230.673 31.644 231.076 31.6236 231.212 31.6986C231.076 31.5963 230.926 31.5144 230.783 31.419C230.899 31.5009 231.206 31.7871 230.783 31.3851C230.639 31.2555 230.496 31.1328 230.36 30.9966C230.08 30.7353 229.814 30.4599 229.562 30.1719C229.439 30.0288 229.316 29.8856 229.2 29.7357C229.282 29.8379 229.487 30.1515 229.2 29.6675C229.016 29.3881 228.832 29.1155 228.662 28.8292C228.621 28.7543 228.341 28.2499 228.505 28.5771C228.668 28.9042 228.457 28.3794 228.423 28.3044C228.3 27.9978 228.423 28.3658 228.423 28.4476C228.423 27.766 228.245 29.0678 228.423 28.4476C228.423 28.4476 228.191 29.061 228.307 28.7406L228.355 28.6588C228.505 28.4408 228.498 28.4408 228.355 28.6588C228.409 28.7338 228.123 28.8837 228.45 28.6043C228.778 28.3249 228.225 28.7679 228.232 28.7679C228.232 28.6316 228.859 28.393 228.968 28.3317C229.078 28.2704 229.289 28.0318 228.846 28.3726C229.013 28.279 229.195 28.2145 229.385 28.1818C230.685 27.8192 232.012 27.5616 233.354 27.4116L234.574 27.2344H234.677L235.141 27.1731C236.007 27.064 236.88 26.9618 237.753 26.88C239.335 26.7301 240.924 26.6347 242.527 26.6347C243.386 26.6347 244.252 26.6347 245.111 26.7165C245.568 26.7165 246.019 26.7846 246.476 26.8323L246.816 26.8732L247.307 26.9482C249.097 27.2472 250.848 27.7385 252.532 28.4135L253.35 22.3887C253.023 22.3887 252.668 22.2592 253.275 22.4364C253.882 22.6136 253.425 22.5114 253.193 22.3546L253.466 22.5454C253.241 22.2933 253.261 22.3274 253.534 22.6341C253.739 23.0702 253.616 22.8862 253.534 22.5182L252.122 25.9804L252.675 25.7419C252.402 25.8509 252.429 25.8441 252.77 25.7078C253.111 25.5715 253.514 25.4215 253.896 25.2852C254.646 25.0263 255.416 24.7945 256.187 24.6037C256.958 24.4129 257.749 24.2425 258.533 24.1062C258.656 24.1062 259.508 23.9562 258.902 24.038C259.297 23.9835 259.699 23.9426 260.095 23.9085C261.684 23.7768 263.28 23.7768 264.869 23.9085C265.169 23.9085 265.462 23.9631 265.763 23.9903C266.063 24.0176 266.158 24.038 265.838 23.9903L266.431 24.0857C267.222 24.2152 268.006 24.372 268.777 24.5696C269.471 24.739 270.154 24.9507 270.823 25.2034C270.175 24.9513 271.021 25.3193 271.15 25.3875C271.414 25.5311 271.669 25.6904 271.914 25.8645C271.334 25.4556 272.125 26.1099 272.235 26.2257C271.771 25.7487 272.378 26.4847 272.467 26.6619C272.146 26.0486 272.521 26.9754 272.569 27.1458C272.385 26.4643 272.569 27.4048 272.569 27.6229C272.569 27.841 272.569 27.9705 272.535 28.1409C272.589 27.766 272.582 27.7524 272.535 28.1409C272.487 28.5294 272.412 28.6588 272.323 28.911C272.235 29.1632 272.214 29.245 272.146 29.4085C272.282 29.0678 272.276 29.0678 272.146 29.4085C272.016 29.7493 271.778 30.09 271.566 30.39C271.464 30.5466 271.355 30.6966 271.239 30.8535C271.437 30.6081 271.423 30.6285 271.198 30.9078C270.973 31.1874 270.707 31.4871 270.448 31.7667C269.93 32.3322 269.391 32.8707 268.845 33.4092C268.269 33.9849 267.945 34.7658 267.945 35.58C267.945 36.3939 268.269 37.1748 268.845 37.7505C269.421 38.3262 270.203 38.6496 271.017 38.6496C271.832 38.6496 272.613 38.3262 273.189 37.7505C275.317 35.6241 277.411 33.3546 278.311 30.4173C279.246 27.3639 278.666 23.7858 276.265 21.5572C274.137 19.5807 271.218 18.7425 268.422 18.2517C265.444 17.7081 262.404 17.5888 259.393 17.8974C255.808 18.2915 252.308 19.2531 249.026 20.7462C247.73 21.3391 247.389 22.968 247.614 24.2152C247.906 25.497 248.639 26.636 249.684 27.4341C250.73 28.2322 252.022 28.639 253.336 28.5839C254.073 28.5717 254.781 28.2975 255.334 27.8103C255.886 27.3231 256.247 26.6549 256.351 25.9259C256.569 24.3106 255.594 23.1384 254.155 22.5659C246.441 19.4649 237.882 20.5826 229.91 21.8844C226.329 22.4568 222.36 24.3856 222.285 28.5294C222.244 30.8535 223.853 33.048 225.333 34.6632C226.813 36.2784 228.743 37.8663 230.974 37.7916C231.746 37.7649 232.498 37.533 233.151 37.1199C233.804 36.7065 234.336 36.1266 234.69 35.4402C235.211 34.2948 235.4 33.0273 235.236 31.7802C235.16 30.6006 235.148 29.4174 235.202 28.2363C235.202 27.7047 235.263 27.1663 235.311 26.6347C235.311 26.3621 235.366 26.0963 235.4 25.8305C235.434 25.5647 235.4 25.6192 235.4 25.8305L235.502 25.1898C235.754 23.6155 235.093 21.7821 233.354 21.4209C231.881 21.087 229.855 21.8707 229.582 23.5609H229.575Z" fill="black"/>
</svg>
